# xmcd
#
# Track frame offsets:
# 150
# 15338
# 35064
# 52613
# 70088
# 91760
# 109960
# 126536
# 143860
# 159535
#
# Disc length: 2347 seconds
#
#
# Revision: 0
# Processed by: cddbd v1.5.1PL0 Copyright (c) Steve Scherf et al.
# Submitted via: FreeRIP 2.70 
#
DISCID=7f09290a
DTITLE=Gene Le Sage - We'll Be Alright
DYEAR=2003
DGENRE=Country
TTITLE0=What's up with That
TTITLE1=Just Because
TTITLE2=Forever Starts Right Now
TTITLE3=Wishing
TTITLE4=Dear Life
TTITLE5=Forgotten
TTITLE6=Hang On Heart
TTITLE7=It Could Be That Easy
TTITLE8=Love Under The Bridge
TTITLE9=We'll Be Alright
EXTD=
EXTT0=
EXTT1=
EXTT2=
EXTT3=
EXTT4=
EXTT5=
EXTT6=
EXTT7=
EXTT8=
EXTT9=
PLAYORDER=
